<?xml version="1.0" encoding="UTF-8" standalone="no"?>
<!-- Created with Inkscape (http://www.inkscape.org/) -->

<svg
   xmlns:dc="http://purl.org/dc/elements/1.1/"
   xmlns:cc="http://creativecommons.org/ns#"
   xmlns:rdf="http://www.w3.org/1999/02/22-rdf-syntax-ns#"
   xmlns:svg="http://www.w3.org/2000/svg"
   xmlns="http://www.w3.org/2000/svg"
   xmlns:sodipodi="http://sodipodi.sourceforge.net/DTD/sodipodi-0.dtd"
   xmlns:inkscape="http://www.inkscape.org/namespaces/inkscape"
   width="1052.3622"
   height="744.09448"
   id="svg7308"
   version="1.1"
   inkscape:version="0.48.4 r9939"
   sodipodi:docname="Nowy dokument 2">
  <defs
     id="defs7310">
    <clipPath
       id="clipPath15421-5"
       clipPathUnits="userSpaceOnUse">
      <path
         inkscape:connector-curvature="0"
         id="path15423-3"
         d="m 846.48,6492.86 55.3477,0 0,50.2305 -55.3477,0 0,-50.2305 z" />
    </clipPath>
    <clipPath
       id="clipPath15433-6"
       clipPathUnits="userSpaceOnUse">
      <path
         inkscape:connector-curvature="0"
         id="path15435-2"
         d="m 1061.88,6315.35 88.9492,0 0,266.801 -88.9492,0 0,-266.801 z" />
    </clipPath>
    <clipPath
       id="clipPath15453-84"
       clipPathUnits="userSpaceOnUse">
      <path
         inkscape:connector-curvature="0"
         id="path15455-5"
         d="m 1423.36,6330.12 152.969,0 0,219.258 -152.969,0 0,-219.258 z" />
    </clipPath>
    <clipPath
       id="clipPath15465-0"
       clipPathUnits="userSpaceOnUse">
      <path
         inkscape:connector-curvature="0"
         id="path15467-74"
         d="m 1517.19,6366.13 128.59,0 0,185.043 -128.59,0 0,-185.043 z" />
    </clipPath>
    <clipPath
       id="clipPath15421"
       clipPathUnits="userSpaceOnUse">
      <path
         inkscape:connector-curvature="0"
         id="path15423"
         d="m 846.48,6492.86 55.3477,0 0,50.2305 -55.3477,0 0,-50.2305 z" />
    </clipPath>
    <clipPath
       id="clipPath15433"
       clipPathUnits="userSpaceOnUse">
      <path
         inkscape:connector-curvature="0"
         id="path15435"
         d="m 1061.88,6315.35 88.9492,0 0,266.801 -88.9492,0 0,-266.801 z" />
    </clipPath>
    <clipPath
       id="clipPath15453"
       clipPathUnits="userSpaceOnUse">
      <path
         inkscape:connector-curvature="0"
         id="path15455"
         d="m 1423.36,6330.12 152.969,0 0,219.258 -152.969,0 0,-219.258 z" />
    </clipPath>
    <clipPath
       id="clipPath15465"
       clipPathUnits="userSpaceOnUse">
      <path
         inkscape:connector-curvature="0"
         id="path15467"
         d="m 1517.19,6366.13 128.59,0 0,185.043 -128.59,0 0,-185.043 z" />
    </clipPath>
  </defs>
  <sodipodi:namedview
     id="base"
     pagecolor="#ffffff"
     bordercolor="#666666"
     borderopacity="1.0"
     inkscape:pageopacity="0.0"
     inkscape:pageshadow="2"
     inkscape:zoom="0.7"
     inkscape:cx="584.1925"
     inkscape:cy="275.38962"
     inkscape:document-units="px"
     inkscape:current-layer="layer1"
     showgrid="false"
     showguides="true"
     inkscape:guide-bbox="true"
     inkscape:window-width="1855"
     inkscape:window-height="1056"
     inkscape:window-x="65"
     inkscape:window-y="24"
     inkscape:window-maximized="1" />
  <metadata
     id="metadata7313">
    <rdf:RDF>
      <cc:Work
         rdf:about="">
        <dc:format>image/svg+xml</dc:format>
        <dc:type
           rdf:resource="http://purl.org/dc/dcmitype/StillImage" />
        <dc:title></dc:title>
      </cc:Work>
    </rdf:RDF>
  </metadata>
  <g
     inkscape:label="Layer 1"
     inkscape:groupmode="layer"
     id="layer1"
     transform="translate(0,-308.2677)">
    <g
       id="g7983"
       transform="translate(-30.967692,33.605372)">
      <g
         transform="matrix(5.6345656,0,0,5.6345656,-650.19023,-2719.9089)"
         id="g7911">
        <path
           id="path15473"
           style="fill:#4153a7;fill-opacity:1;fill-rule:nonzero;stroke:none"
           d="m 279.71156,620.90044 1.22367,-3.087 -2.08929,-0.69097 -1.12106,2.81411 1.98668,0.96387 z"
           inkscape:connector-curvature="0" />
        <path
           id="path15475"
           style="fill:none;stroke:#000000;stroke-width:0.01189165;stroke-linecap:butt;stroke-linejoin:miter;stroke-miterlimit:4;stroke-opacity:1;stroke-dasharray:none"
           d="m 279.71156,620.90044 1.22367,-3.087 -2.08929,-0.69097 -1.12106,2.81411 1.98668,0.96387 z"
           inkscape:connector-curvature="0" />
        <path
           id="path15391"
           style="fill:#4d65ad;fill-opacity:1;fill-rule:nonzero;stroke:none"
           d="m 166.01969,584.43446 c 0.46087,0.3504 0.94652,0.78922 1.45399,1.31318 0.52058,0.52069 1.0285,1.08722 1.5184,1.70177 0.5078,0.60148 0.98461,1.21495 1.42888,1.84589 0.44767,0.61456 0.82208,1.18982 1.12991,1.72689 l -2.51185,0 c -0.31983,-0.53707 -0.6997,-1.08286 -1.12531,-1.63738 -0.4183,-0.56654 -0.85362,-1.1036 -1.31755,-1.61118 -0.46054,-0.52069 -0.92578,-0.99771 -1.40378,-1.42889 -0.47713,-0.43009 -0.92905,-0.78813 -1.36011,-1.08285 l 0,5.76029 -2.1406,0 0,-17.51231 2.1406,-0.36677 0,10.92023 c 0.37135,-0.36678 0.776,-0.77612 1.22028,-1.21931 0.44776,-0.44755 0.88648,-0.89946 1.31329,-1.36011 0.4303,-0.46065 0.83964,-0.89948 1.22377,-1.31318 0.38293,-0.43118 0.71171,-0.80559 0.98887,-1.12979 l 2.51196,0 c -0.35389,0.38315 -0.73813,0.80558 -1.15174,1.26623 -0.4136,0.46065 -0.8439,0.93003 -1.29244,1.40706 -0.4434,0.46064 -0.89498,0.93002 -1.35596,1.40706 -0.44722,0.46064 -0.86988,0.8951 -1.27061,1.31317"
           inkscape:connector-curvature="0" />
        <path
           inkscape:connector-curvature="0"
           style="fill:#4d65ad;fill-opacity:1;fill-rule:nonzero;stroke:none"
           d="m 157.125,578.75 c -1.35248,0 -2.40243,0.30984 -3.1875,0.9375 -0.78496,0.61784 -1.1875,1.44335 -1.1875,2.5 0,0.53816 0.0979,1.00823 0.28125,1.375 0.18807,0.37005 0.44217,0.67663 0.75,0.9375 0.30651,0.25981 0.64846,0.48665 1.0625,0.6875 0.42975,0.18338 0.88321,0.37475 1.34375,0.5625 0.95078,0.38424 1.64454,0.72341 2.0625,1.03125 0.41404,0.30673 0.625,0.72604 0.625,1.25 0,0.50322 -0.22595,0.86343 -0.65625,1.09375 -0.41361,0.23032 -1.05866,0.34375 -1.9375,0.34375 -0.89073,0 -1.6181,-0.0979 -2.15625,-0.28125 -0.53718,-0.18338 -0.90846,-0.31675 -1.15625,-0.40625 l 0,0.0312 c -0.50207,-0.19691 -1.31034,-0.44696 -2.34375,-0.375 -0.55612,0.0387 -1.18333,0.19071 -1.8125,0.46875 -1.6007,0.70645 -2.58498,2.26985 -3.21875,4.125 -0.63377,1.85515 -0.91767,4.05116 -0.9375,6.25 -0.0108,1.40223 -0.0963,4.91985 1.0625,8.5 1.15882,3.58015 3.67195,7.30723 8.65625,8.84375 7.0578,2.17631 12.48222,0.0917 17.03125,-0.75 5.38881,-0.9967 18.5198,-0.99228 31.71875,-0.75 13.19895,0.24228 26.5514,0.70054 32.90625,0.5625 3.24359,-0.0694 10.21627,-0.51066 17.84375,-0.375 7.62748,0.13566 15.8876,0.86506 21.4375,3 a 0.9170238,0.9170238 0 1 0 0.65625,-1.6875 c -5.97943,-2.30018 -14.34583,-2.98776 -22.0625,-3.125 -7.71667,-0.13724 -14.80296,0.27669 -17.9375,0.34375 -6.20712,0.13484 -19.59286,-0.31984 -32.8125,-0.5625 -13.21964,-0.24266 -26.20419,-0.27682 -32.09375,0.8125 -4.80783,0.8896 -9.66289,2.78352 -16.15625,0.78125 -4.36742,-1.34636 -6.39599,-4.43855 -7.4375,-7.65625 -1.04151,-3.2177 -1.01105,-6.46489 -1,-7.90625 0.0185,-2.04852 0.30088,-4.09842 0.84375,-5.6875 0.54287,-1.58908 1.34769,-2.66427 2.25,-3.0625 1.73199,-0.76539 2.96875,0.0312 2.96875,0.0312 a 0.91922288,0.91922288 0 0 0 0.0312,0 l 0,0.0312 a 0.91922288,0.91922288 0 0 0 0.0625,0 c 0.007,0.003 0.0237,0.0282 0.0312,0.0312 a 0.91922288,0.91922288 0 0 0 0.0312,0.0312 c 0.0179,0.007 0.0741,-0.007 0.0937,0 a 0.91922288,0.91922288 0 0 0 0.0937,0.0312 c 0.23368,0.0833 0.45739,0.18544 0.90625,0.3125 0.59699,0.18337 1.44335,0.28125 2.5,0.28125 1.52265,0 2.68558,-0.30737 3.5,-0.875 0.82765,-0.56653 1.25,-1.39531 1.25,-2.5 0,-0.56653 -0.0799,-1.05435 -0.25,-1.4375 -0.1715,-0.4017 -0.42601,-0.72273 -0.75,-1 -0.30707,-0.27726 -0.67723,-0.52336 -1.125,-0.71875 -0.44427,-0.21832 -0.96374,-0.43903 -1.53125,-0.65625 -0.43107,-0.15391 -0.78592,-0.30106 -1.09375,-0.4375 -0.30662,-0.13973 -0.5685,-0.28359 -0.78125,-0.4375 -0.20085,-0.17029 -0.35872,-0.3304 -0.46875,-0.53125 -0.0896,-0.19976 -0.125,-0.45786 -0.125,-0.71875 0,-0.5065 0.20859,-0.86343 0.65625,-1.09375 0.44307,-0.24779 0.9655,-0.375 1.5625,-0.375 0.68988,0 1.29004,0.0823 1.78125,0.21875 0.4946,0.12444 0.86353,0.25602 1.09375,0.375 l 0.375,-1.84375 c -0.12368,-0.0469 -0.3006,-0.123 -0.53125,-0.1875 -0.21701,-0.0589 -0.45964,-0.10935 -0.75,-0.15625 -0.29374,-0.0601 -0.6002,-0.0956 -0.9375,-0.125 -0.33599,-0.047 -0.69526,-0.0625 -1.03125,-0.0625 z"
           id="path15393" />
        <path
           id="path15395"
           style="fill:#4d65ad;fill-opacity:1;fill-rule:nonzero;stroke:none"
           d="m 171.64048,579.38588 c 0.48992,-0.12336 1.14617,-0.25108 1.95711,-0.39189 0.81443,-0.13645 1.7521,-0.20522 2.81433,-0.20522 0.95044,0 1.74304,0.13646 2.37071,0.41371 0.63093,0.26089 1.12979,0.63531 1.50093,1.12979 0.38314,0.47375 0.65167,1.04902 0.80559,1.7269 0.15391,0.6746 0.23032,1.42016 0.23032,2.23448 l 0,6.72854 -2.14496,0 0,-6.26789 c 0,-0.73791 -0.0556,-1.36448 -0.16156,-1.88844 -0.0895,-0.52069 -0.25216,-0.94313 -0.48248,-1.26624 -0.23043,-0.32421 -0.53706,-0.55453 -0.9213,-0.69098 -0.38326,-0.15391 -0.86126,-0.23032 -1.42801,-0.23032 -0.23022,0 -0.46895,0.004 -0.71586,0.0208 -0.24354,0.0175 -0.48227,0.0393 -0.71291,0.0687 -0.21712,0.0164 -0.41798,0.0383 -0.60126,0.072 -0.16592,0.0306 -0.28959,0.0513 -0.3659,0.0687 l 0,10.11354 -2.14475,0 0,-11.6363"
           inkscape:connector-curvature="0" />
        <path
           id="path15397"
           style="fill:#000000;fill-opacity:1;fill-rule:nonzero;stroke:none"
           d="m 161.25295,605.78916 c 0,-1.21166 0.17433,-2.26396 0.52823,-3.16015 0.3505,-0.9082 0.8153,-1.66248 1.39526,-2.25959 0.57515,-0.59708 1.24419,-1.04464 1.9951,-1.34374 0.75427,-0.298 1.52614,-0.44755 2.31536,-0.44755 1.84249,0 3.25303,0.58074 4.23415,1.73999 0.98461,1.13852 1.47495,2.88288 1.47495,5.23197 l 0,0.42245 c 0,0.15718 -0.008,0.30673 -0.0252,0.44755 l -9.36372,0 c 0.10271,1.42015 0.51642,2.49864 1.23697,3.23655 0.71598,0.73354 1.83692,1.10359 3.36428,1.10359 0.86093,0 1.57734,-0.072 2.15675,-0.21286 0.59742,-0.15719 1.04476,-0.30673 1.34407,-0.44754 l 0.34025,2.05546 c -0.29812,0.15719 -0.82295,0.3242 -1.57724,0.49885 -0.73769,0.17466 -1.57734,0.25979 -2.52472,0.25979 -1.1931,0 -2.23011,-0.17464 -3.10338,-0.52395 -0.86137,-0.36677 -1.57003,-0.86564 -2.13198,-1.50093 -0.56326,-0.63203 -0.98112,-1.37322 -1.26296,-2.23448 -0.26395,-0.87872 -0.39614,-1.83387 -0.39614,-2.86541 m 9.39397,-1.34375 c 0.0167,-1.10359 -0.26515,-2.00851 -0.84467,-2.70714 -0.559,-0.72043 -1.3385,-1.07848 -2.34047,-1.07848 -0.55911,0 -1.06222,0.11462 -1.50093,0.34057 -0.41796,0.20849 -0.78038,0.49012 -1.07499,0.84053 -0.29811,0.35368 -0.53728,0.75429 -0.71216,1.21057 -0.15816,0.45628 -0.26394,0.9213 -0.31503,1.39396 l 6.78825,0"
           inkscape:connector-curvature="0" />
        <path
           id="path15399"
           style="fill:#000000;fill-opacity:1;fill-rule:nonzero;stroke:none"
           d="m 178.7477,612.86264 c -1.50858,-0.0339 -2.57506,-0.35804 -3.20611,-0.97152 -0.6353,-0.61456 -0.95087,-1.5697 -0.95087,-2.86978 l 0,-16.41199 2.44755,-0.42244 0,16.44146 c 0,0.40498 0.0337,0.73792 0.10698,0.99771 0.0679,0.26526 0.18338,0.47375 0.34079,0.63094 0.15817,0.15828 0.36666,0.28163 0.63061,0.37114 0.26438,0.0688 0.58847,0.13208 0.97271,0.18339 l -0.34166,2.05109"
           inkscape:connector-curvature="0" />
        <path
           id="path15401"
           style="fill:#000000;fill-opacity:1;fill-rule:nonzero;stroke:none"
           d="m 179.00858,605.78916 c 0,-1.21166 0.17902,-2.26396 0.52833,-3.16015 0.34931,-0.9082 0.81433,-1.66248 1.39396,-2.25959 0.57635,-0.59708 1.2455,-1.04464 1.99978,-1.34374 0.75101,-0.298 1.52276,-0.44755 2.31198,-0.44755 1.84151,0 3.25293,0.58074 4.23754,1.73999 0.98133,1.13852 1.47146,2.88288 1.47146,5.23197 l 0,0.42245 c 0,0.15718 -0.009,0.30673 -0.0251,0.44755 l -9.36363,0 c 0.10152,1.42015 0.51523,2.49864 1.23568,3.23655 0.71717,0.73354 1.84259,1.10359 3.36427,1.10359 0.86126,0 1.57843,-0.072 2.15806,-0.21286 0.5971,-0.15719 1.04465,-0.30673 1.34265,-0.44754 l 0.34167,2.05546 c -0.2991,0.15719 -0.82306,0.3242 -1.57734,0.49885 -0.73792,0.17466 -1.57844,0.25979 -2.52484,0.25979 -1.1942,0 -2.23011,-0.17464 -3.10447,-0.52395 -0.86126,-0.36677 -1.56861,-0.86564 -2.13187,-1.50093 -0.56217,-0.63203 -0.98024,-1.37322 -1.26187,-2.23448 -0.26417,-0.87872 -0.39625,-1.83387 -0.39625,-2.86541 m 9.3931,-1.34375 c 0.0175,-1.10359 -0.26417,-2.00851 -0.8438,-2.70714 -0.55889,-0.72043 -1.33937,-1.07848 -2.34145,-1.07848 -0.55889,0 -1.06102,0.11462 -1.49656,0.34057 -0.42245,0.20849 -0.78049,0.49012 -1.07849,0.84053 -0.2991,0.35368 -0.53706,0.75429 -0.71281,1.21057 -0.15719,0.45628 -0.26416,0.9213 -0.31547,1.39396 l 6.78858,0"
           inkscape:connector-curvature="0" />
        <path
           id="path15403"
           style="fill:#000000;fill-opacity:1;fill-rule:nonzero;stroke:none"
           d="m 201.89696,605.78916 c 0,-1.59918 -0.39625,-2.82284 -1.18437,-3.6841 -0.78922,-0.8569 -1.8426,-1.28808 -3.15578,-1.28808 -0.73791,0 -1.31317,0.0251 -1.73562,0.0764 -0.40498,0.0556 -0.72918,0.1157 -0.9726,0.18338 l 0,8.63117 c 0.29909,0.24233 0.72481,0.48139 1.28807,0.70735 0.55889,0.23032 1.17236,0.34495 1.84259,0.34495 0.69862,0 1.29572,-0.12336 1.78584,-0.37005 0.50759,-0.2609 0.9213,-0.61456 1.23677,-1.04902 0.31546,-0.45627 0.54579,-0.9857 0.6866,-1.5828 0.13645,-0.61347 0.2085,-1.2706 0.2085,-1.96922 m 2.54994,0 c 0,1.03155 -0.14081,1.98669 -0.41698,2.86541 -0.26526,0.87764 -0.66151,1.63301 -1.18547,2.26395 -0.52505,0.63095 -1.17782,1.12106 -1.94957,1.47146 -0.74992,0.34931 -1.61991,0.52396 -2.60016,0.52396 -0.78921,0 -1.49328,-0.10261 -2.10676,-0.31547 -0.59709,-0.20849 -1.04028,-0.40934 -1.33937,-0.60146 l 0,5.47103 -2.44734,0 0,-18.12688 c 0.57963,-0.13972 1.29681,-0.28927 2.15807,-0.44755 0.87436,-0.17465 1.88408,-0.2598 3.0226,-0.2598 1.05338,0 1.99978,0.16593 2.8403,0.49886 0.8438,0.33293 1.56097,0.80559 2.15698,1.42015 0.5971,0.61347 1.05338,1.36885 1.36885,2.26395 0.33293,0.87436 0.49885,1.8677 0.49885,2.97239"
           inkscape:connector-curvature="0" />
        <path
           id="path15405"
           style="fill:#000000;fill-opacity:1;fill-rule:nonzero;stroke:none"
           d="m 205.85068,612.59846 0,-19.98912 2.44734,-0.42244 0,6.99706 c 0.45628,-0.17465 0.93767,-0.30673 1.44526,-0.39188 0.52832,-0.10697 1.04464,-0.15828 1.55223,-0.15828 1.08722,0 1.99105,0.15828 2.7115,0.47375 0.71608,0.298 1.28807,0.72481 1.71052,1.28698 0.43445,0.54579 0.74118,1.20293 0.9202,1.97468 0.17575,0.77175 0.26089,1.61991 0.26089,2.54994 l 0,7.67931 -2.44406,0 0,-7.15098 c 0,-0.84379 -0.0633,-1.56424 -0.18775,-2.15697 -0.10152,-0.5971 -0.28927,-1.07958 -0.54907,-1.44963 -0.26526,-0.36677 -0.61456,-0.63203 -1.05338,-0.78921 -0.43991,-0.17466 -0.98134,-0.2598 -1.62865,-0.2598 -0.26525,0 -0.53815,0.0163 -0.81869,0.0502 -0.27726,0.0349 -0.55016,0.0776 -0.81541,0.13318 -0.24233,0.0338 -0.47266,0.0764 -0.68224,0.13208 -0.1954,0.0514 -0.33184,0.0939 -0.42135,0.12771 l 0,11.36341 -2.44734,0"
           inkscape:connector-curvature="0" />
        <path
           id="path15407"
           style="fill:#000000;fill-opacity:1;fill-rule:nonzero;stroke:none"
           d="m 230.86328,605.76295 c 0,1.08722 -0.15828,2.06856 -0.47375,2.94293 -0.31547,0.87763 -0.76302,1.63301 -1.34265,2.26395 -0.56326,0.63093 -1.23677,1.12105 -2.02598,1.47036 -0.78922,0.3373 -1.65048,0.50322 -2.57505,0.50322 -0.93004,0 -1.7913,-0.16592 -2.58051,-0.50322 -0.78813,-0.34931 -1.47037,-0.83943 -2.05,-1.47036 -0.56326,-0.63094 -1.00208,-1.38632 -1.31864,-2.26395 -0.31547,-0.87437 -0.47265,-1.85571 -0.47265,-2.94293 0,-1.06975 0.15718,-2.04672 0.47265,-2.91998 0.31656,-0.89619 0.75538,-1.65921 1.31864,-2.29015 0.57963,-0.63094 1.26187,-1.11342 2.05,-1.44526 0.78921,-0.3504 1.65047,-0.52943 2.58051,-0.52943 0.92457,0 1.78583,0.17902 2.57505,0.52943 0.78921,0.33184 1.46272,0.81432 2.02598,1.44526 0.57963,0.63094 1.02718,1.39396 1.34265,2.29015 0.31547,0.87326 0.47375,1.85023 0.47375,2.91998 m -2.55431,0 c 0,-1.5435 -0.3504,-2.7628 -1.04902,-3.65789 -0.6866,-0.91258 -1.62428,-1.36886 -2.8141,-1.36886 -1.1942,0 -2.1406,0.45628 -2.84468,1.36886 -0.68224,0.8951 -1.02281,2.11439 -1.02281,3.65789 0,1.53914 0.34057,2.76718 1.02281,3.67974 0.70408,0.89619 1.65048,1.34374 2.84468,1.34374 1.18982,0 2.1275,-0.44754 2.8141,-1.34374 0.69862,-0.91257 1.04902,-2.1406 1.04902,-3.67974"
           inkscape:connector-curvature="0" />
        <path
           id="path15409"
           style="fill:#000000;fill-opacity:1;fill-rule:nonzero;stroke:none"
           d="m 232.23977,599.31604 c 0.55889,-0.14081 1.30554,-0.29036 2.23448,-0.44754 0.93003,-0.15828 1.99978,-0.23469 3.21144,-0.23469 1.08722,0 1.98669,0.15827 2.70713,0.47375 0.72045,0.298 1.28808,0.7248 1.70943,1.28698 0.43991,0.54579 0.74664,1.20293 0.9213,1.97468 0.17465,0.77175 0.26416,1.61991 0.26416,2.54993 l 0,7.67931 -2.44734,0 0,-7.15098 c 0,-0.84379 -0.0633,-1.56424 -0.18338,-2.15697 -0.10589,-0.5971 -0.28927,-1.07958 -0.55453,-1.44963 -0.26416,-0.36677 -0.61347,-0.63203 -1.05229,-0.78921 -0.43554,-0.17466 -0.98133,-0.2598 -1.62973,-0.2598 -0.26417,0 -0.53706,0.008 -0.81433,0.0251 -0.28163,0.0175 -0.55452,0.0426 -0.81869,0.0764 -0.24233,0.0175 -0.47265,0.0469 -0.68224,0.0818 -0.19103,0.0338 -0.33184,0.0589 -0.42135,0.0764 l 0,11.54679 -2.44406,0 0,-13.28241"
           inkscape:connector-curvature="0" />
        <path
           id="path15411"
           style="fill:#000000;fill-opacity:1;fill-rule:nonzero;stroke:none"
           d="m 269.1965,610.83774 c 0.99771,0 1.73562,-0.13208 2.20828,-0.39297 0.49012,-0.26416 0.73791,-0.68661 0.73791,-1.26624 0,-0.59273 -0.23906,-1.06538 -0.71171,-1.42015 -0.47375,-0.34931 -1.25424,-0.74119 -2.34145,-1.1811 -0.52397,-0.21286 -1.03155,-0.42135 -1.52168,-0.63093 -0.47374,-0.23033 -0.88745,-0.49012 -1.23676,-0.78813 -0.35368,-0.29909 -0.63094,-0.6615 -0.84489,-1.07958 -0.20849,-0.42135 -0.31547,-0.93767 -0.31547,-1.55223 0,-1.21057 0.44755,-2.16571 1.34374,-2.86869 0.8951,-0.71718 2.11004,-1.07959 3.65354,-1.07959 0.38861,0 0.77175,0.0306 1.16036,0.0808 0.38314,0.0349 0.74228,0.0906 1.07848,0.15828 0.33294,0.0513 0.6233,0.11462 0.86563,0.18339 0.26417,0.072 0.46502,0.13208 0.60583,0.18338 l -0.44755,2.10676 c -0.26089,-0.14081 -0.67351,-0.28163 -1.23676,-0.42244 -0.5589,-0.15828 -1.23677,-0.23469 -2.02599,-0.23469 -0.68224,0 -1.27825,0.14081 -1.78583,0.41808 -0.50759,0.26416 -0.76411,0.6866 -0.76411,1.26187 0,0.29909 0.0513,0.56326 0.15828,0.78922 0.12335,0.23032 0.298,0.43881 0.52396,0.6353 0.24779,0.17465 0.54579,0.34057 0.89619,0.49885 0.34931,0.15719 0.77175,0.3242 1.26187,0.49886 0.64841,0.2467 1.22804,0.49012 1.73563,0.73791 0.51195,0.22596 0.93767,0.49886 1.29134,0.81432 0.36677,0.31547 0.6484,0.69862 0.84052,1.1549 0.19212,0.43991 0.29036,0.9857 0.29036,1.63301 0,1.26297 -0.47374,2.21811 -1.42015,2.86542 -0.93003,0.6484 -2.26395,0.9726 -3.99957,0.9726 -1.21166,0 -2.15806,-0.10261 -2.84031,-0.31547 -0.6866,-0.19212 -1.15053,-0.34057 -1.39395,-0.44318 l 0.44755,-2.10676 c 0.28163,0.10697 0.72481,0.26416 1.33937,0.47375 0.61348,0.20849 1.4278,0.31546 2.44734,0.31546"
           inkscape:connector-curvature="0" />
        <path
           id="path15413"
           style="fill:#000000;fill-opacity:1;fill-rule:nonzero;stroke:none"
           d="m 262.95809,598.63381 c 0.20849,0 0.44755,0.0175 0.70734,0.0514 0.28163,0.0175 0.55453,0.0514 0.81433,0.10698 0.26525,0.0338 0.50322,0.0764 0.7128,0.13208 0.22596,0.0339 0.39625,0.0677 0.49886,0.10151 l -0.41808,2.13297 c -0.19648,-0.0688 -0.52069,-0.14955 -0.97588,-0.23906 -0.43991,-0.10262 -1.00644,-0.15828 -1.71051,-0.15828 -0.45628,0 -0.91257,0.0556 -1.36448,0.15828 -0.43882,0.0895 -0.72918,0.14955 -0.87,0.18775 l 0,11.49113 -2.44733,0 0,-13.09904 c 0.57963,-0.20849 1.30007,-0.40061 2.15806,-0.57526 0.86126,-0.19649 1.82404,-0.29037 2.89489,-0.29037"
           inkscape:connector-curvature="0" />
        <path
           id="path15415"
           style="fill:#000000;fill-opacity:1;fill-rule:nonzero;stroke:none"
           d="m 156.04271,598.92418 5.18503,0 0,2.05108 -5.18503,0 0,6.31045 c 0,0.68661 0.0546,1.25314 0.15741,1.70943 0.10653,0.43991 0.26394,0.78922 0.47363,1.05338 0.21286,0.2478 0.47255,0.42244 0.78802,0.52506 0.31557,0.10588 0.68649,0.15719 1.10905,0.15719 0.73344,0 1.32191,-0.0764 1.76062,-0.23469 0.45628,-0.17466 0.77186,-0.29801 0.94662,-0.36678 l 0.47376,2.02599 c -0.24693,0.11898 -0.67373,0.26853 -1.28819,0.44317 -0.61357,0.19649 -1.31754,0.29037 -2.10556,0.29037 -0.92992,0 -1.70178,-0.11134 -2.31536,-0.34166 -0.59273,-0.24343 -1.07958,-0.60584 -1.44635,-1.07849 -0.36667,-0.47375 -0.63104,-1.05338 -0.78802,-1.73562 -0.14114,-0.69971 -0.20969,-1.50966 -0.20969,-2.42223 l 0,-12.20284 2.44406,-0.42244 0,4.23863"
           inkscape:connector-curvature="0" />
        <g
           id="g15417"
           transform="matrix(0.10915859,0,0,-0.10915859,69.244167,1311.8618)"
           style="fill:#000000">
          <g
             clip-path="url(#clipPath15421)"
             id="g15419"
             style="fill:#000000">
            <path
               id="path15425"
               style="fill:#000000;fill-opacity:1;fill-rule:nonzero;stroke:none"
               d="m 842.621,6468.2 c 0,11.1 1.598,20.71 4.84,28.91 3.199,8.36 7.461,15.27 12.769,20.74 5.282,5.47 11.411,9.53 18.29,12.27 6.91,2.73 13.98,4.1 21.21,4.1 16.872,0 29.801,-5.31 38.79,-15.9 9.019,-10.43 13.511,-26.41 13.511,-47.97 l 0,-3.83 c 0,-1.44 -0.082,-2.81 -0.23,-4.1 l -85.781,0 c 0.929,-13.01 4.718,-22.89 11.32,-29.65 6.57,-6.75 16.84,-10.11 30.82,-10.11 7.891,0 14.461,0.62 19.77,1.91 5.468,1.45 9.57,2.81 12.3,4.1 l 3.129,-18.79 c -2.738,-1.44 -7.539,-2.97 -14.449,-4.57 -6.762,-1.6 -14.461,-2.42 -23.172,-2.42 -10.898,0 -20.386,1.6 -28.398,4.85 -7.891,3.35 -14.41,7.93 -19.531,13.71 -5.149,5.78 -8.981,12.61 -11.559,20.5 -2.422,8.01 -3.629,16.76 -3.629,26.25 m 86.051,12.31 c 0.156,10.12 -2.422,18.36 -7.731,24.8 -5.121,6.6 -12.312,9.89 -21.453,9.89 -5.148,0 -9.718,-1.06 -13.75,-3.13 -3.828,-1.95 -7.148,-4.49 -9.84,-7.73 -2.738,-3.21 -4.918,-6.92 -6.519,-11.06 -1.449,-4.18 -2.43,-8.44 -2.899,-12.77 l 62.192,0"
               inkscape:connector-curvature="0" />
          </g>
        </g>
        <g
           id="g15429"
           transform="matrix(0.10915859,0,0,-0.10915859,69.244167,1311.8618)"
           style="fill:#000000">
          <g
             clip-path="url(#clipPath15433)"
             id="g15431"
             style="fill:#000000">
            <path
               id="path15437"
               style="fill:#000000;fill-opacity:1;fill-rule:nonzero;stroke:none"
               d="m 1215.08,6468.28 c 0,14.61 -3.63,25.86 -10.86,33.75 -7.23,7.85 -16.88,11.8 -28.91,11.8 -6.76,0 -12.07,-0.24 -15.9,-0.74 -3.71,-0.47 -6.68,-1.02 -8.94,-1.68 l 0,-79.03 c 2.73,-2.26 6.68,-4.41 11.83,-6.52 5.12,-2.07 10.75,-3.12 16.84,-3.12 6.45,0 11.91,1.13 16.41,3.35 4.65,2.43 8.43,5.63 11.33,9.65 2.89,4.18 4.96,8.99 6.24,14.46 1.29,5.62 1.96,11.64 1.96,18.08 m 23.36,0 c 0,-9.49 -1.29,-18.24 -3.87,-26.25 -2.38,-8.04 -6.02,-14.96 -10.82,-20.74 -4.84,-5.78 -10.78,-10.27 -17.85,-13.48 -6.92,-3.24 -14.85,-4.84 -23.87,-4.84 -7.23,0 -13.63,0.98 -19.26,2.89 -5.47,1.95 -9.57,3.79 -12.3,5.55 l 0,-50.12 -22.38,0 0,166.02 c 5.27,1.28 11.87,2.65 19.72,4.1 8.05,1.6 17.31,2.42 27.74,2.42 9.65,0 18.32,-1.52 26.01,-4.57 7.74,-3.05 14.3,-7.42 19.77,-13.01 5.47,-5.62 9.65,-12.54 12.54,-20.74 3.04,-8.05 4.57,-17.11 4.57,-27.23"
               inkscape:connector-curvature="0" />
          </g>
        </g>
        <g
           id="g15449"
           transform="matrix(0.10915859,0,0,-0.10915859,69.244167,1311.8618)"
           style="fill:#000000">
          <g
             clip-path="url(#clipPath15453)"
             id="g15451"
             style="fill:#000000">
            <path
               id="path15457"
               style="fill:#000000;fill-opacity:1;fill-rule:nonzero;stroke:none"
               d="m 1480.47,6468.63 c 0,-9.96 -1.45,-18.94 -4.34,-26.99 -2.89,-8.01 -6.99,-14.92 -12.3,-20.7 -5.12,-5.78 -11.33,-10.27 -18.56,-13.52 -7.22,-3.04 -15.07,-4.57 -23.59,-4.57 -8.52,0 -16.41,1.53 -23.63,4.57 -7.23,3.25 -13.48,7.74 -18.79,13.52 -5.16,5.78 -9.14,12.69 -12.03,20.7 -2.89,8.05 -4.34,17.03 -4.34,26.99 0,9.81 1.45,18.71 4.34,26.76 2.89,8.2 6.87,15.2 12.03,20.98 5.31,5.78 11.56,10.19 18.79,13.24 7.22,3.2 15.11,4.8 23.63,4.8 8.52,0 16.37,-1.6 23.59,-4.8 7.23,-3.05 13.44,-7.46 18.56,-13.24 5.31,-5.78 9.41,-12.78 12.3,-20.98 2.89,-8.05 4.34,-16.95 4.34,-26.76 m -23.36,0 c 0,14.14 -3.24,25.32 -9.65,33.52 -6.29,8.36 -14.88,12.5 -25.78,12.5 -10.94,0 -19.61,-4.14 -26.02,-12.5 -6.28,-8.2 -9.41,-19.38 -9.41,-33.52 0,-14.14 3.13,-25.39 9.41,-33.71 6.41,-8.2 15.08,-12.3 26.02,-12.3 10.9,0 19.49,4.1 25.78,12.3 6.41,8.32 9.65,19.57 9.65,33.71"
               inkscape:connector-curvature="0" />
          </g>
        </g>
        <path
           id="path15459"
           style="fill:#000000;fill-opacity:1;fill-rule:nonzero;stroke:none"
           d="m 244.51574,605.78916 c 0,-1.21166 0.17575,-2.26396 0.52506,-3.16015 0.3493,-0.9082 0.81432,-1.66248 1.39395,-2.25959 0.57963,-0.59708 1.2455,-1.04464 1.99979,-1.34374 0.75537,-0.298 1.52713,-0.44755 2.31525,-0.44755 1.8426,0 3.25402,0.58074 4.23426,1.73999 0.98134,1.13852 1.47146,2.88288 1.47146,5.23197 l 0,0.42245 c 0,0.15718 -0.009,0.30673 -0.0262,0.44755 l -9.36362,0 c 0.10697,1.42015 0.51632,2.49864 1.23677,3.23655 0.72044,0.73354 1.84259,1.10359 3.36863,1.10359 0.85689,0 1.57734,-0.072 2.15806,-0.21286 0.59274,-0.15719 1.04029,-0.30673 1.33829,-0.44754 l 0.34167,2.05546 c -0.2991,0.15719 -0.82306,0.3242 -1.57844,0.49885 -0.73682,0.17466 -1.57734,0.25979 -2.52374,0.25979 -1.1942,0 -2.22575,-0.17464 -3.10447,-0.52395 -0.8569,-0.36677 -1.56861,-0.86564 -2.13187,-1.50093 -0.55889,-0.63203 -0.98025,-1.37322 -1.26188,-2.23448 -0.25979,-0.87872 -0.39297,-1.83387 -0.39297,-2.86541 m 9.38983,-1.34375 c 0.0175,-1.10359 -0.26417,-2.00851 -0.84053,-2.70714 -0.56216,-0.72043 -1.34265,-1.07848 -2.34036,-1.07848 -0.56325,0 -1.06211,0.11462 -1.50093,0.34057 -0.42244,0.20849 -0.78048,0.49012 -1.07848,0.84053 -0.2991,0.35368 -0.53379,0.75429 -0.71281,1.21057 -0.15719,0.45628 -0.2598,0.9213 -0.31547,1.39396 l 6.78858,0"
           inkscape:connector-curvature="0" />
        <g
           id="g15461"
           transform="matrix(0.10915859,0,0,-0.10915859,69.244167,1311.8618)"
           style="fill:#000000">
          <g
             clip-path="url(#clipPath15465)"
             id="g15463"
             style="fill:#000000">
            <path
               id="path15469"
               style="fill:#000000;fill-opacity:1;fill-rule:nonzero;stroke:none"
               d="m 1493.24,6527.85 c 5.12,1.29 11.96,2.66 20.47,4.1 8.52,1.45 18.32,2.15 29.41,2.15 9.97,0 18.25,-1.44 24.81,-4.33 6.6,-2.74 11.8,-6.68 15.66,-11.8 4.03,-5 6.84,-11.02 8.44,-18.09 1.6,-7.07 2.42,-14.84 2.42,-23.36 l 0,-70.39 -22.42,0 0,65.55 c 0,7.73 -0.55,14.3 -1.68,19.77 -0.97,5.46 -2.65,9.88 -5.08,13.28 -2.38,3.36 -5.62,5.78 -9.61,7.22 -4.02,1.61 -9.02,2.39 -14.96,2.39 -2.42,0 -4.88,-0.08 -7.46,-0.24 -2.58,-0.15 -5.08,-0.39 -7.46,-0.7 -2.26,-0.16 -4.33,-0.43 -6.29,-0.74 -1.76,-0.32 -3.04,-0.55 -3.83,-0.71 l 0,-105.82 -22.42,0 0,121.72"
               inkscape:connector-curvature="0" />
          </g>
        </g>
        <path
           id="path15471"
           style="fill:#4d65ad;fill-opacity:1;fill-rule:nonzero;stroke:none"
           d="m 278.06127,619.98413 -3.42431,-1.71051 0.78485,-1.98232 3.67974,1.12542 -1.04028,2.56741 z"
           inkscape:connector-curvature="0" />
        <path
           id="path15477"
           style="fill:#4153a7;fill-opacity:1;fill-rule:nonzero;stroke:none"
           d="m 275.94578,619.09232 0.37987,0.17465 1.01517,-2.56195 -0.37987,-0.11571 -0.43008,1.08722 -0.36678,-0.14409 0.42136,-1.06211 -0.41372,-0.11571 -0.94203,2.37528 0.38423,0.18776 0.40935,-1.03156 0.35804,0.14082 -0.43554,1.06539 z"
           inkscape:connector-curvature="0" />
        <path
           id="path15479"
           style="fill:none;stroke:#000000;stroke-width:0.01189165;stroke-linecap:butt;stroke-linejoin:miter;stroke-miterlimit:4;stroke-opacity:1;stroke-dasharray:none"
           d="m 275.94578,619.09232 0.37987,0.17465 1.01517,-2.56195 -0.37987,-0.11571 -0.43008,1.08722 -0.36678,-0.14409 0.42136,-1.06211 -0.41372,-0.11571 -0.94203,2.37528 0.38423,0.18776 0.40935,-1.03156 0.35804,0.14518 -0.43554,1.06103 z"
           inkscape:connector-curvature="0" />
        <path
           id="path15481"
           style="fill:#4153a7;fill-opacity:1;fill-rule:nonzero;stroke:none"
           d="m 274.60313,618.41006 0.3755,0.18777 0.92457,-2.33272 -0.40934,-0.13208 -0.89073,2.27704 z"
           inkscape:connector-curvature="0" />
        <path
           id="path15483"
           style="fill:none;stroke:#000000;stroke-width:0.01189165;stroke-linecap:butt;stroke-linejoin:miter;stroke-miterlimit:4;stroke-opacity:1;stroke-dasharray:none"
           d="m 274.60313,618.41006 0.3755,0.18777 0.92457,-2.33272 -0.40934,-0.13208 -0.89073,2.27704 z"
           inkscape:connector-curvature="0" />
        <path
           id="path15485"
           style="fill:#4153a7;fill-opacity:1;fill-rule:nonzero;stroke:none"
           d="m 277.33646,619.75818 0.37114,0.18339 1.09158,-2.7759 -0.37114,-0.12881 -0.46065,1.16472 -0.3624,-0.14518 0.44318,-1.12543 -0.38315,-0.12007 -1.03264,2.61434 0.37114,0.17903 0.43555,-1.13416 0.35367,0.14082 -0.45628,1.14725 z"
           inkscape:connector-curvature="0" />
        <path
           id="path15487"
           style="fill:none;stroke:#000000;stroke-width:0.01189165;stroke-linecap:butt;stroke-linejoin:miter;stroke-miterlimit:4;stroke-opacity:1;stroke-dasharray:none"
           d="m 277.33646,619.75818 0.37114,0.18339 1.09158,-2.7759 -0.37114,-0.12881 -0.46065,1.16472 -0.3624,-0.14518 0.44318,-1.12106 -0.38315,-0.12444 -1.03264,2.61434 0.37114,0.17903 0.43555,-1.13416 0.35367,0.14082 -0.45628,1.14725 z"
           inkscape:connector-curvature="0" />
        <path
           style="font-size:medium;font-style:normal;font-variant:normal;font-weight:normal;font-stretch:normal;text-indent:0;text-align:start;text-decoration:none;line-height:normal;letter-spacing:normal;word-spacing:normal;text-transform:none;direction:ltr;block-progression:tb;writing-mode:lr-tb;text-anchor:start;baseline-shift:baseline;color:#000000;fill:#8d6821;fill-opacity:1;stroke:none;stroke-width:0.19920023;marker:none;visibility:visible;display:inline;overflow:visible;enable-background:accumulate;font-family:Sans;-inkscape-font-specification:Sans"
           d="m 280.53125,620.15625 -0.0312,0.0937 0,0.0312 -0.0625,0.15625 0.0937,-0.0312 0.0312,0 2.28125,0.90625 0.0625,0.0312 0.0625,-0.0625 0,-0.0312 0.0625,-0.0937 -0.0937,-0.0312 -0.0312,0 -2.28125,-0.9375 -0.0937,-0.0312 z"
           id="path15489"
           inkscape:connector-curvature="0" />
        <path
           id="path15491"
           style="fill:#109158;fill-opacity:1;fill-rule:nonzero;stroke:none"
           d="m 280.75184,619.88963 0.009,-0.0251 2.30214,0.91256 -0.0131,0.0208 -2.29778,-0.90819 z"
           inkscape:connector-curvature="0" />
        <path
           style="font-size:medium;font-style:normal;font-variant:normal;font-weight:normal;font-stretch:normal;text-indent:0;text-align:start;text-decoration:none;line-height:normal;letter-spacing:normal;word-spacing:normal;text-transform:none;direction:ltr;block-progression:tb;writing-mode:lr-tb;text-anchor:start;baseline-shift:baseline;color:#000000;fill:#109158;fill-opacity:1;stroke:none;stroke-width:0.19920023;marker:none;visibility:visible;display:inline;overflow:visible;enable-background:accumulate;font-family:Sans;-inkscape-font-specification:Sans"
           d="m 280.6875,619.71875 -0.0312,0.125 -0.0312,0.125 0.125,0.0312 2.25,0.875 0.0312,0 0.0625,0.0312 0.0312,-0.0312 0.0312,-0.0312 0.0625,-0.0937 -0.125,-0.0625 -2.28125,-0.90625 -0.0312,0 -0.0937,-0.0625 z"
           id="path15493"
           inkscape:connector-curvature="0" />
        <path
           id="path15495"
           style="fill:#4f4ca3;fill-opacity:1;fill-rule:nonzero;stroke:none"
           d="m 280.92214,619.45955 0.009,-0.0262 2.30216,0.91256 -0.008,0.0218 -2.30325,-0.9082 z"
           inkscape:connector-curvature="0" />
        <path
           style="font-size:medium;font-style:normal;font-variant:normal;font-weight:normal;font-stretch:normal;text-indent:0;text-align:start;text-decoration:none;line-height:normal;letter-spacing:normal;word-spacing:normal;text-transform:none;direction:ltr;block-progression:tb;writing-mode:lr-tb;text-anchor:start;baseline-shift:baseline;color:#000000;fill:#4e49a2;fill-opacity:1;stroke:none;stroke-width:0.19920023;marker:none;visibility:visible;display:inline;overflow:visible;enable-background:accumulate;font-family:Sans;-inkscape-font-specification:Sans"
           d="m 280.875,619.3125 -0.0312,0.0937 -0.0312,0.0312 0.125,0.0312 -0.0312,0.0625 0,0.0312 0.0937,0.0312 2.1875,0.875 0.0937,0.0312 0.0312,-0.0937 0.0312,-0.0312 0,-0.0937 -0.0625,-0.0312 -2.3125,-0.90625 -0.0937,-0.0312 z"
           id="path15497"
           inkscape:connector-curvature="0" />
        <path
           id="path15499"
           style="fill:#4f4ca3;fill-opacity:1;fill-rule:nonzero;stroke:none"
           d="m 281.09242,619.02837 0.009,-0.0251 2.30325,0.91255 -0.009,0.0208 -2.30325,-0.90819 z"
           inkscape:connector-curvature="0" />
        <path
           style="font-size:medium;font-style:normal;font-variant:normal;font-weight:normal;font-stretch:normal;text-indent:0;text-align:start;text-decoration:none;line-height:normal;letter-spacing:normal;word-spacing:normal;text-transform:none;direction:ltr;block-progression:tb;writing-mode:lr-tb;text-anchor:start;baseline-shift:baseline;color:#000000;fill:#f89a1c;fill-opacity:1;stroke:none;stroke-width:0.19920023;marker:none;visibility:visible;display:inline;overflow:visible;enable-background:accumulate;font-family:Sans;-inkscape-font-specification:Sans"
           d="m 281.03125,618.875 -0.0312,0.0937 0,0.0312 0,0.0312 0,0.0625 0.0625,0.0312 2.28125,0.90625 0.0937,0.0312 0.0625,-0.0937 0.0312,-0.0937 -0.0937,-0.0625 -2.3125,-0.90625 -0.0937,-0.0312 z"
           id="path15501"
           inkscape:connector-curvature="0" />
        <path
           id="path15503"
           style="fill:#c9d2d1;fill-opacity:1;fill-rule:nonzero;stroke:none"
           d="m 280.6667,620.10359 0.009,-0.0262 2.30216,0.91256 -0.0131,0.0262 -2.29779,-0.91256 z"
           inkscape:connector-curvature="0" />
        <path
           style="font-size:medium;font-style:normal;font-variant:normal;font-weight:normal;font-stretch:normal;text-indent:0;text-align:start;text-decoration:none;line-height:normal;letter-spacing:normal;word-spacing:normal;text-transform:none;direction:ltr;block-progression:tb;writing-mode:lr-tb;text-anchor:start;baseline-shift:baseline;color:#000000;fill:#cfd3d1;fill-opacity:1;stroke:none;stroke-width:0.19920023;marker:none;visibility:visible;display:inline;overflow:visible;enable-background:accumulate;font-family:Sans;-inkscape-font-specification:Sans"
           d="m 280.625,619.9375 -0.0312,0.0937 -0.0312,0.0312 -0.0312,0.15625 0.125,0 2.28125,0.875 0.0625,0.0625 0.0625,-0.0937 0,-0.0312 0.0625,-0.0937 L 283,620.90625 280.71875,620 l -0.0312,0 -0.0625,-0.0625 z"
           id="path15505"
           inkscape:connector-curvature="0" />
        <path
           id="path15507"
           style="fill:#c9d2d1;fill-opacity:1;fill-rule:nonzero;stroke:none"
           d="m 280.83699,619.67241 0.009,-0.0252 2.30215,0.91257 -0.009,0.0251 -2.30216,-0.91257 z"
           inkscape:connector-curvature="0" />
        <path
           style="font-size:medium;font-style:normal;font-variant:normal;font-weight:normal;font-stretch:normal;text-indent:0;text-align:start;text-decoration:none;line-height:normal;letter-spacing:normal;word-spacing:normal;text-transform:none;direction:ltr;block-progression:tb;writing-mode:lr-tb;text-anchor:start;baseline-shift:baseline;color:#000000;fill:#cfd3d1;fill-opacity:1;stroke:none;stroke-width:0.19920023;marker:none;visibility:visible;display:inline;overflow:visible;enable-background:accumulate;font-family:Sans;-inkscape-font-specification:Sans"
           d="m 280.71875,619.53125 0.0312,0.0937 0,0.0625 0.0937,0 -0.0312,0.0625 2.28125,0.9375 0.0937,0.0312 0.0312,-0.0937 0.0312,-0.0312 0.0312,-0.0937 -0.0937,-0.0312 -2.3125,-0.90625 -0.0937,-0.0312 0,0.0312 -0.0625,-0.0312 z"
           id="path15509"
           inkscape:connector-curvature="0" />
        <path
           id="path15511"
           style="fill:#c9d2d1;fill-opacity:1;fill-rule:nonzero;stroke:none"
           d="m 281.00729,619.24233 0.009,-0.0262 2.30324,0.91255 -0.009,0.0262 -2.30323,-0.91256 z"
           inkscape:connector-curvature="0" />
        <path
           style="font-size:medium;font-style:normal;font-variant:normal;font-weight:normal;font-stretch:normal;text-indent:0;text-align:start;text-decoration:none;line-height:normal;letter-spacing:normal;word-spacing:normal;text-transform:none;direction:ltr;block-progression:tb;writing-mode:lr-tb;text-anchor:start;baseline-shift:baseline;color:#000000;fill:#cfd3d1;fill-opacity:1;stroke:none;stroke-width:0.19920023;marker:none;visibility:visible;display:inline;overflow:visible;enable-background:accumulate;font-family:Sans;-inkscape-font-specification:Sans"
           d="m 280.96875,619.09375 0,0.0312 -0.0312,0.0625 -0.0312,0.0312 0.0937,0.0312 0,0.0312 -0.0312,0.0312 0,0.0312 2.3125,0.90625 0.0937,0.0312 0.0312,-0.0937 0,-0.0312 0.0312,-0.0937 -0.0937,-0.0312 -2.28125,-0.90625 -0.0937,-0.0312 z"
           id="path15513"
           inkscape:connector-curvature="0" />
        <path
           id="path15515"
           style="fill:#c9d2d1;fill-opacity:1;fill-rule:nonzero;stroke:none"
           d="m 281.17865,618.81114 0.008,-0.0251 2.30325,0.91256 -0.009,0.0252 -2.30215,-0.91256 z"
           inkscape:connector-curvature="0" />
        <path
           style="font-size:medium;font-style:normal;font-variant:normal;font-weight:normal;font-stretch:normal;text-indent:0;text-align:start;text-decoration:none;line-height:normal;letter-spacing:normal;word-spacing:normal;text-transform:none;direction:ltr;block-progression:tb;writing-mode:lr-tb;text-anchor:start;baseline-shift:baseline;color:#000000;fill:#cfd3d1;fill-opacity:1;stroke:none;stroke-width:0.19920023;marker:none;visibility:visible;display:inline;overflow:visible;enable-background:accumulate;font-family:Sans;-inkscape-font-specification:Sans"
           d="m 281.125,618.65625 -0.0312,0.0937 0,0.0312 -0.0625,0.1875 0.125,-0.0625 0.0312,0 2.25,0.90625 0.0937,0.0312 0.0312,-0.0937 0.0312,0 0.0312,-0.0937 -0.0937,-0.0625 -2.3125,-0.90625 -0.0937,-0.0312 z"
           id="path15517"
           inkscape:connector-curvature="0" />
        <path
           id="path15519"
           style="fill:#e6eef1;fill-opacity:1;fill-rule:nonzero;stroke:none"
           d="m 280.84345,618.12454 -0.95078,2.43533 3.05644,1.21056 0.12881,-0.3242 0.0546,0.009 0.10697,-0.2729 0.11134,0.047 0.48576,-1.22803 -0.11134,-0.0426 0.10261,-0.26854 -0.0557,-0.0426 0.12444,-0.3111 -3.05316,-1.21166 z m 0.47265,0.60146 0.69097,0.27726 -0.66914,1.69742 -0.67788,-0.26963 0.65605,-1.70505 z m 1.05774,0.39624 0.28163,0.11135 -0.69096,1.74327 -0.27727,-0.11025 0.6866,-1.74436 z"
           inkscape:connector-curvature="0" />
        <path
           id="path7964"
           style="fill:none;stroke:#000000;stroke-width:0.01189165;stroke-linecap:butt;stroke-linejoin:miter;stroke-miterlimit:4;stroke-opacity:1;stroke-dasharray:none"
           d="m 280.81188,618.18768 -0.95078,2.43533 3.05644,1.21056 0.12881,-0.3242 0.0546,0.009 0.10697,-0.2729 0.11134,0.047 0.48576,-1.22803 -0.11134,-0.0426 0.10261,-0.26854 -0.0557,-0.0426 0.12444,-0.3111 -3.05316,-1.21166 z m 0.47265,0.60146 0.69097,0.27726 -0.66914,1.69742 -0.67788,-0.26963 0.65605,-1.70505 z m 1.05774,0.39624 0.28163,0.11135 -0.69096,1.74327 -0.27727,-0.11025 0.6866,-1.74436 z"
           inkscape:connector-curvature="0" />
        <path
           style="fill:none;stroke:#000000;stroke-width:0.01189165;stroke-linecap:butt;stroke-linejoin:miter;stroke-miterlimit:4;stroke-opacity:1;stroke-dasharray:none"
           d="m 280.07835,620.64501 0.95512,-2.40913"
           inkscape:connector-curvature="0"
           id="path15523" />
        <path
           id="path15525"
           style="fill:#677821;fill-opacity:1;fill-rule:nonzero;stroke:none"
           d="m 282.18837,620.94738 0.004,-0.009 0.89182,0.3504 -0.004,0.012 -0.89183,-0.35367 z"
           inkscape:connector-curvature="0" />
        <path
           style="font-size:medium;font-style:normal;font-variant:normal;font-weight:normal;font-stretch:normal;text-indent:0;text-align:start;text-decoration:none;line-height:normal;letter-spacing:normal;word-spacing:normal;text-transform:none;direction:ltr;block-progression:tb;writing-mode:lr-tb;text-anchor:start;baseline-shift:baseline;color:#000000;fill:#d1b76c;fill-opacity:1;stroke:none;stroke-width:0.03660339;marker:none;visibility:visible;display:inline;overflow:visible;enable-background:accumulate;font-family:Sans;-inkscape-font-specification:Sans"
           d="m 282.125,620.875 0,0.0625 0.0312,0 0.0312,0 0,0.0312 0,0.0312 0.875,0.34375 0.0625,0.0312 0,-0.0625 0.0312,-0.0625 -0.0625,0 -0.84375,-0.3125 -0.0312,-0.0312 -0.0625,-0.0312 -0.0312,0 z"
           id="path15527"
           inkscape:connector-curvature="0" />
        <path
           id="path15529"
           style="fill:#677821;fill-opacity:1;fill-rule:nonzero;stroke:none"
           d="m 282.27789,620.73451 0.004,-0.009 0.88747,0.34931 0,0.0131 -0.89184,-0.35368 z"
           inkscape:connector-curvature="0" />
        <path
           style="font-size:medium;font-style:normal;font-variant:normal;font-weight:normal;font-stretch:normal;text-indent:0;text-align:start;text-decoration:none;line-height:normal;letter-spacing:normal;word-spacing:normal;text-transform:none;direction:ltr;block-progression:tb;writing-mode:lr-tb;text-anchor:start;baseline-shift:baseline;color:#000000;fill:#d1b76c;fill-opacity:1;stroke:none;stroke-width:0.03660339;marker:none;visibility:visible;display:inline;overflow:visible;enable-background:accumulate;font-family:Sans;-inkscape-font-specification:Sans"
           d="m 282.25,620.65625 -0.0312,0.0625 0.0312,0.0312 0,0.0312 0.0312,0 0.84375,0.3125 0.0312,0.0312 0.0625,0.0312 0,-0.0625 0,-0.0312 0,-0.0312 -0.0312,0 -0.875,-0.34375 -0.0312,0 -0.0312,-0.0312 z"
           id="path15531"
           inkscape:connector-curvature="0" />
        <path
           id="path15533"
           style="fill:#677821;fill-opacity:1;fill-rule:nonzero;stroke:none"
           d="m 282.35975,620.51729 0.004,-0.009 0.89073,0.3493 -0.004,0.0131 -0.89073,-0.35367 z"
           inkscape:connector-curvature="0" />
        <path
           style="font-size:medium;font-style:normal;font-variant:normal;font-weight:normal;font-stretch:normal;text-indent:0;text-align:start;text-decoration:none;line-height:normal;letter-spacing:normal;word-spacing:normal;text-transform:none;direction:ltr;block-progression:tb;writing-mode:lr-tb;text-anchor:start;baseline-shift:baseline;color:#000000;fill:#d1b76c;fill-opacity:1;stroke:none;stroke-width:0.03660339;marker:none;visibility:visible;display:inline;overflow:visible;enable-background:accumulate;font-family:Sans;-inkscape-font-specification:Sans"
           d="m 282.3125,620.4375 0,0.0625 0,0.0312 0.0625,0 -0.0312,0.0312 0.875,0.34375 0.0312,0 0.0312,0.0312 0.0312,-0.0625 0,-0.0625 -0.0312,0 -0.90625,-0.34375 -0.0312,-0.0312 -0.0312,0 z"
           id="path15535"
           inkscape:connector-curvature="0" />
        <path
           id="path15537"
           style="fill:#677821;fill-opacity:1;fill-rule:nonzero;stroke:none"
           d="m 282.4449,620.30335 0.004,-0.012 0.89073,0.35368 -0.004,0.009 -0.89074,-0.3504 z"
           inkscape:connector-curvature="0" />
        <path
           style="font-size:medium;font-style:normal;font-variant:normal;font-weight:normal;font-stretch:normal;text-indent:0;text-align:start;text-decoration:none;line-height:normal;letter-spacing:normal;word-spacing:normal;text-transform:none;direction:ltr;block-progression:tb;writing-mode:lr-tb;text-anchor:start;baseline-shift:baseline;color:#000000;fill:#d1b76c;fill-opacity:1;stroke:none;stroke-width:0.03660339;marker:none;visibility:visible;display:inline;overflow:visible;enable-background:accumulate;font-family:Sans;-inkscape-font-specification:Sans"
           d="m 282.40625,620.21875 0,0.0625 0,0.0312 0,0.0312 0.0312,0 0.875,0.34375 0.0625,0.0312 0,-0.0312 0,-0.0312 0.0312,-0.0312 -0.0625,-0.0312 -0.875,-0.34375 -0.0625,-0.0312 z"
           id="path15539"
           inkscape:connector-curvature="0" />
        <path
           id="path15541"
           style="fill:#677821;fill-opacity:1;fill-rule:nonzero;stroke:none"
           d="m 282.53005,620.08612 0.004,-0.009 0.89074,0.35366 -0.004,0.009 -0.89074,-0.35369 z"
           inkscape:connector-curvature="0" />
        <path
           style="font-size:medium;font-style:normal;font-variant:normal;font-weight:normal;font-stretch:normal;text-indent:0;text-align:start;text-decoration:none;line-height:normal;letter-spacing:normal;word-spacing:normal;text-transform:none;direction:ltr;block-progression:tb;writing-mode:lr-tb;text-anchor:start;baseline-shift:baseline;color:#000000;fill:#d1b76c;fill-opacity:1;stroke:none;stroke-width:0.03660339;marker:none;visibility:visible;display:inline;overflow:visible;enable-background:accumulate;font-family:Sans;-inkscape-font-specification:Sans"
           d="m 282.46875,620 0,0.0625 0,0.0312 0.0312,0 0,0.0312 0.90625,0.375 0.0312,0 0.0312,-0.0312 0,-0.0312 0.0312,-0.0312 -0.0625,-0.0312 -0.875,-0.34375 L 282.5,620 l -0.0312,0 z"
           id="path15543"
           inkscape:connector-curvature="0" />
        <path
           id="path15545"
           style="fill:#677821;fill-opacity:1;fill-rule:nonzero;stroke:none"
           d="m 282.61518,619.87326 0.004,-0.0131 0.89072,0.35368 -0.004,0.009 -0.89074,-0.34931 z"
           inkscape:connector-curvature="0" />
        <path
           style="font-size:medium;font-style:normal;font-variant:normal;font-weight:normal;font-stretch:normal;text-indent:0;text-align:start;text-decoration:none;line-height:normal;letter-spacing:normal;word-spacing:normal;text-transform:none;direction:ltr;block-progression:tb;writing-mode:lr-tb;text-anchor:start;baseline-shift:baseline;color:#000000;fill:#d1b76c;fill-opacity:1;stroke:none;stroke-width:0.03660339;marker:none;visibility:visible;display:inline;overflow:visible;enable-background:accumulate;font-family:Sans;-inkscape-font-specification:Sans"
           d="m 282.59375,619.78125 -0.0312,0.0625 0,0.0312 0,0.0312 0.0312,0 0.90625,0.375 0.0312,0 0.0312,-0.0312 0,-0.0312 0,-0.0312 -0.0312,0 0,-0.0312 -0.90625,-0.34375 -0.0312,-0.0312 z"
           id="path15547"
           inkscape:connector-curvature="0" />
        <path
           id="path15549"
           style="fill:#677821;fill-opacity:1;fill-rule:nonzero;stroke:none"
           d="m 282.70033,619.65494 0.004,-0.008 0.89074,0.35367 -0.004,0.009 -0.89182,-0.35476 z"
           inkscape:connector-curvature="0" />
        <path
           style="font-size:medium;font-style:normal;font-variant:normal;font-weight:normal;font-stretch:normal;text-indent:0;text-align:start;text-decoration:none;line-height:normal;letter-spacing:normal;word-spacing:normal;text-transform:none;direction:ltr;block-progression:tb;writing-mode:lr-tb;text-anchor:start;baseline-shift:baseline;color:#000000;fill:#d1b76c;fill-opacity:1;stroke:none;stroke-width:0.03660339;marker:none;visibility:visible;display:inline;overflow:visible;enable-background:accumulate;font-family:Sans;-inkscape-font-specification:Sans"
           d="m 282.6875,619.59375 -0.0312,0.0312 0.0312,0.0312 0,0.0312 0.0312,0.0312 0.84375,0.34375 0.0625,0 0,-0.0312 0.0312,0 0,-0.0625 -0.0312,0 -0.90625,-0.375 -0.0312,0 z"
           id="path15551"
           inkscape:connector-curvature="0" />
        <path
           id="path15553"
           style="fill:#677821;fill-opacity:1;fill-rule:nonzero;stroke:none"
           d="m 282.78548,619.44208 0.004,-0.0131 0.89183,0.35477 -0.004,0.008 -0.89182,-0.3493 z"
           inkscape:connector-curvature="0" />
        <path
           style="font-size:medium;font-style:normal;font-variant:normal;font-weight:normal;font-stretch:normal;text-indent:0;text-align:start;text-decoration:none;line-height:normal;letter-spacing:normal;word-spacing:normal;text-transform:none;direction:ltr;block-progression:tb;writing-mode:lr-tb;text-anchor:start;baseline-shift:baseline;color:#000000;fill:#d1b76c;fill-opacity:1;stroke:none;stroke-width:0.03660339;marker:none;visibility:visible;display:inline;overflow:visible;enable-background:accumulate;font-family:Sans;-inkscape-font-specification:Sans"
           d="m 282.75,619.375 0,0.0312 0,0.0312 0,0.0312 0.0312,0 0,0.0312 0.875,0.34375 0.0312,0 0.0312,-0.0312 0.0312,-0.0625 -0.0625,0 -0.875,-0.375 -0.0625,0 z"
           id="path15555"
           inkscape:connector-curvature="0" />
      </g>
    </g>
  </g>
</svg>
